CalSansText-Medium.ufo
<glyph name="four" format="2">
  <advance width="579.925"/>
  <unicode hex="0034"/>
  <outline>
    <contour>
      <point x="336.15" y="0.0" type="line"/>
      <point x="444.9" y="0.0" type="line"/>
      <point x="444.9" y="706.825" type="line"/>
      <point x="371.625" y="706.825" type="line"/>
      <point x="25.725" y="237.47500000000002" type="line"/>
      <point x="25.725" y="201.925" type="line"/>
      <point x="526.475" y="201.925" type="line"/>
      <point x="526.475" y="295.025" type="line"/>
      <point x="167.85" y="295.025" type="line"/>
      <point x="167.85" y="296.025" type="line"/>
      <point x="177.475" y="302.175"/>
      <point x="186.10000000000002" y="309.275"/>
      <point x="192.625" y="318.85" type="curve" smooth="yes"/>
      <point x="299.95" y="467.25" type="line" smooth="yes"/>
      <point x="320.0" y="495.4"/>
      <point x="334.575" y="528.45"/>
      <point x="339.725" y="544.6500000000001" type="curve"/>
      <point x="341.725" y="544.6500000000001" type="line"/>
      <point x="339.725" y="533.125"/>
      <point x="337.2" y="485.25"/>
      <point x="336.67499999999995" y="442.75" type="curve"/>
    </contour>
  </outline>
</glyph>
<glyph name="five" format="2">
  <advance width="591.5"/>
  <unicode hex="0035"/>
  <outline>
    <contour>
      <point x="273.35" y="-13.0" type="curve" smooth="yes"/>
      <point x="417.525" y="-13.0"/>
      <point x="520.175" y="85.9"/>
      <point x="520.175" y="222.8" type="curve" smooth="yes"/>
      <point x="520.175" y="340.65"/>
      <point x="445.55" y="444.775"/>
      <point x="301.45" y="444.775" type="curve" smooth="yes"/>
      <point x="280.35" y="444.775"/>
      <point x="259.475" y="440.725"/>
      <point x="239.8" y="434.15" type="curve"/>
      <point x="237.8" y="436.15" type="line"/>
      <point x="282.525" y="651.5999999999999" type="line"/>
      <point x="203.75" y="602.725" type="line"/>
      <point x="479.425" y="602.725" type="line"/>
      <point x="479.425" y="700.0" type="line"/>
      <point x="188.575" y="700.0" type="line"/>
      <point x="102.775" y="297.475" type="line"/>
      <point x="162.45" y="332.2"/>
      <point x="216.025" y="349.35"/>
      <point x="268.35" y="349.35" type="curve" smooth="yes"/>
      <point x="356.525" y="349.35"/>
      <point x="407.2" y="296.42499999999995"/>
      <point x="407.2" y="220.7" type="curve" smooth="yes"/>
      <point x="407.2" y="141.14999999999998"/>
      <point x="349.95000000000005" y="89.175"/>
      <point x="274.35" y="88.65" type="curve" smooth="yes"/>
      <point x="212.2" y="88.125"/>
      <point x="165.225" y="111.80000000000001"/>
      <point x="121.175" y="157.95" type="curve"/>
      <point x="49.925" y="83.525" type="line"/>
      <point x="109.0" y="17.1"/>
      <point x="183.925" y="-13.0"/>
    </contour>
  </outline>
</glyph>
<glyph name="eight" format="2">
  <advance width="572.25"/>
  <unicode hex="0038"/>
  <outline>
    <contour>
      <point x="286.125" y="-13.0" type="curve" smooth="yes"/>
      <point x="425.05" y="-13.0"/>
      <point x="518.675" y="72.375"/>
      <point x="518.675" y="193.625" type="curve" smooth="yes"/>
      <point x="518.675" y="284.15"/>
      <point x="468.95000000000005" y="344.775"/>
      <point x="403.75" y="370.15" type="curve"/>
      <point x="403.75" y="373.675" type="line"/>
      <point x="462.425" y="404.0"/>
      <point x="499.20000000000005" y="457.3"/>
      <point x="499.20000000000005" y="521.875" type="curve" smooth="yes"/>
      <point x="499.20000000000005" y="632.775"/>
      <point x="416.42499999999995" y="713.0"/>
      <point x="286.125" y="713.0" type="curve" smooth="yes"/>
      <point x="156.3" y="713.0"/>
      <point x="74.625" y="632.775"/>
      <point x="74.625" y="520.3" type="curve" smooth="yes"/>
      <point x="74.625" y="457.3"/>
      <point x="109.825" y="404.0"/>
      <point x="169.5" y="373.675" type="curve"/>
      <point x="169.5" y="370.15" type="line"/>
      <point x="103.3" y="344.775"/>
      <point x="53.575" y="284.15"/>
      <point x="53.575" y="192.05" type="curve" smooth="yes"/>
      <point x="53.575" y="72.375"/>
      <point x="147.675" y="-13.0"/>
    </contour>
    <contour>
      <point x="286.125" y="82.85" type="curve" smooth="yes"/>
      <point x="217.2" y="82.85"/>
      <point x="164.275" y="134.1"/>
      <point x="164.275" y="203.375" type="curve" smooth="yes"/>
      <point x="164.275" y="269.25"/>
      <point x="211.425" y="322.225"/>
      <point x="286.125" y="322.225" type="curve" smooth="yes"/>
      <point x="360.82500000000005" y="322.225"/>
      <point x="407.975" y="269.25"/>
      <point x="407.975" y="201.8" type="curve" smooth="yes"/>
      <point x="407.975" y="134.1"/>
      <point x="355.05" y="82.85"/>
    </contour>
    <contour>
      <point x="288.175" y="414.275" type="curve" smooth="yes"/>
      <point x="222.525" y="414.275"/>
      <point x="183.425" y="465.5"/>
      <point x="183.425" y="516.975" type="curve" smooth="yes"/>
      <point x="183.425" y="575.475"/>
      <point x="229.875" y="617.625"/>
      <point x="286.6" y="617.625" type="curve" smooth="yes"/>
      <point x="344.8" y="617.625"/>
      <point x="391.35" y="575.475"/>
      <point x="390.875" y="515.4" type="curve" smooth="yes"/>
      <point x="390.4" y="461.82500000000005"/>
      <point x="353.29999999999995" y="414.275"/>
    </contour>
  </outline>
</glyph>
<glyph name="nine" format="2">
  <advance width="587.2750000000001"/>
  <unicode hex="0039"/>
  <outline>
    <contour>
      <point x="148.8" y="0.0" type="line"/>
      <point x="278.725" y="0.0" type="line"/>
      <point x="466.65" y="299.375" type="line" smooth="yes"/>
      <point x="507.25" y="363.4"/>
      <point x="530.0" y="423.05"/>
      <point x="530.0" y="481.4" type="curve" smooth="yes"/>
      <point x="530.0" y="615.675"/>
      <point x="430.25" y="713.0"/>
      <point x="285.55" y="713.0" type="curve" smooth="yes"/>
      <point x="142.425" y="713.0"/>
      <point x="41.725" y="615.675"/>
      <point x="41.725" y="479.825" type="curve" smooth="yes"/>
      <point x="41.725" y="320.0"/>
      <point x="175.77499999999998" y="226.2"/>
      <point x="317.1" y="273.675" type="curve"/>
      <point x="318.575" y="270.725" type="line"/>
    </contour>
    <contour>
      <point x="281.4" y="348.175" type="curve" smooth="yes"/>
      <point x="208.3" y="348.175"/>
      <point x="155.22500000000002" y="408.79999999999995"/>
      <point x="155.22500000000002" y="481.4" type="curve" smooth="yes"/>
      <point x="155.22500000000002" y="557.675"/>
      <point x="209.875" y="611.875"/>
      <point x="285.55" y="611.875" type="curve" smooth="yes"/>
      <point x="361.85" y="611.875"/>
      <point x="415.45000000000005" y="557.675"/>
      <point x="415.45000000000005" y="479.825" type="curve" smooth="yes"/>
      <point x="415.45000000000005" y="408.79999999999995"/>
      <point x="363.95000000000005" y="348.175"/>
    </contour>
  </outline>
</glyph>
<glyph name="at" format="2">
  <advance width="997.8499999999999"/>
  <unicode hex="0040"/>
  <outline>
    <contour>
      <point x="518.425" y="-216.0" type="curve" smooth="yes"/>
      <point x="572.425" y="-216.0"/>
      <point x="624.425" y="-208.0"/>
      <point x="672.425" y="-192.0" type="curve"/>
      <point x="645.7249999999999" y="-118.125" type="line"/>
      <point x="607.625" y="-130.65"/>
      <point x="566.0999999999999" y="-138.65"/>
      <point x="519.95" y="-138.65" type="curve" smooth="yes"/>
      <point x="291.5" y="-138.65"/>
      <point x="137.925" y="31.549999999999997"/>
      <point x="137.925" y="248.0" type="curve" smooth="yes"/>
      <point x="137.925" y="461.92499999999995"/>
      <point x="291.5" y="635.7"/>
      <point x="516.95" y="635.7" type="curve" smooth="yes"/>
      <point x="745.925" y="635.7"/>
      <point x="864.925" y="458.925"/>
      <point x="864.925" y="309.625" type="curve" smooth="yes"/>
      <point x="864.925" y="199.89999999999998"/>
      <point x="827.1" y="124.42500000000001"/>
      <point x="769.225" y="124.42500000000001" type="curve" smooth="yes"/>
      <point x="726.65" y="124.42500000000001"/>
      <point x="710.6500000000001" y="155.325"/>
      <point x="710.6500000000001" y="201.175" type="curve" smooth="yes"/>
      <point x="710.6500000000001" y="217.85"/>
      <point x="712.175" y="237.425"/>
      <point x="714.175" y="255.525" type="curve" smooth="yes"/>
      <point x="738.6" y="462.0" type="line"/>
      <point x="632.95" y="462.0" type="line"/>
      <point x="626.425" y="396.3" type="line"/>
      <point x="621.425" y="396.3" type="line"/>
      <point x="601.8499999999999" y="443.325"/>
      <point x="563.6500000000001" y="473.625"/>
      <point x="497.82500000000005" y="473.625" type="curve" smooth="yes"/>
      <point x="367.525" y="473.625"/>
      <point x="267.525" y="363.25"/>
      <point x="267.525" y="237.625" type="curve" smooth="yes"/>
      <point x="267.525" y="120.0"/>
      <point x="346.0" y="36.375"/>
      <point x="460.575" y="36.375" type="curve" smooth="yes"/>
      <point x="536.3499999999999" y="36.375"/>
      <point x="588.9749999999999" y="79.85"/>
      <point x="608.7" y="136.975" type="curve"/>
      <point x="613.7" y="136.975" type="line"/>
      <point x="630.25" y="75.575"/>
      <point x="675.4" y="36.375"/>
      <point x="752.1" y="36.375" type="curve" smooth="yes"/>
      <point x="881.45" y="36.375"/>
      <point x="948.175" y="161.0"/>
      <point x="948.175" y="296.0" type="curve" smooth="yes"/>
      <point x="948.175" y="507.0"/>
      <point x="782.425" y="713.0"/>
      <point x="518.425" y="713.0" type="curve" smooth="yes"/>
      <point x="251.425" y="713.0"/>
      <point x="54.675" y="507.0"/>
      <point x="54.675" y="248.0" type="curve" smooth="yes"/>
      <point x="54.675" y="-13.0"/>
      <point x="251.425" y="-216.0"/>
    </contour>
    <contour>
      <point x="485.6" y="132.7" type="curve" smooth="yes"/>
      <point x="419.425" y="132.7"/>
      <point x="378.92499999999995" y="179.14999999999998"/>
      <point x="378.92499999999995" y="241.525" type="curve" smooth="yes"/>
      <point x="378.92499999999995" y="316.85"/>
      <point x="434.425" y="376.82500000000005"/>
      <point x="513.4749999999999" y="376.82500000000005" type="curve" smooth="yes"/>
      <point x="570.625" y="376.82500000000005"/>
      <point x="612.8" y="330.325"/>
      <point x="612.8" y="268.625" type="curve" smooth="yes"/>
      <point x="612.8" y="195.25"/>
      <point x="555.625" y="132.7"/>
    </contour>
  </outline>
</glyph>
<glyph name="B" format="2">
  <advance width="627.5"/>
  <unicode hex="0042"/>
  <anchor x="323.6" y="0.0" name="bottom"/>
  <anchor x="319.6" y="700.0" name="top"/>
  <outline>
    <contour>
      <point x="81.05000000000001" y="0.0" type="line"/>
      <point x="338.375" y="0.0" type="line" smooth="yes"/>
      <point x="483.54999999999995" y="0.0"/>
      <point x="579.55" y="73.9"/>
      <point x="579.55" y="191.95" type="curve" smooth="yes"/>
      <point x="579.55" y="302.075"/>
      <point x="498.025" y="353.45000000000005"/>
      <point x="417.25" y="366.275" type="curve"/>
      <point x="417.25" y="371.75" type="line"/>
      <point x="493.35" y="389.04999999999995"/>
      <point x="540.55" y="435.175"/>
      <point x="540.55" y="516.0" type="curve" smooth="yes"/>
      <point x="540.55" y="628.675"/>
      <point x="458.54999999999995" y="700.0"/>
      <point x="313.375" y="700.0" type="curve" smooth="yes"/>
      <point x="81.05000000000001" y="700.0" type="line"/>
    </contour>
    <contour>
      <point x="191.65" y="104.025" type="line"/>
      <point x="191.65" y="304.225" type="line"/>
      <point x="332.225" y="304.225" type="line" smooth="yes"/>
      <point x="411.875" y="304.225"/>
      <point x="467.475" y="273.35"/>
      <point x="467.475" y="204.175" type="curve" smooth="yes"/>
      <point x="467.475" y="133.52499999999998"/>
      <point x="411.875" y="104.025"/>
      <point x="332.225" y="104.025" type="curve" smooth="yes"/>
    </contour>
    <contour>
      <point x="191.65" y="403.775" type="line"/>
      <point x="191.65" y="595.975" type="line"/>
      <point x="307.225" y="595.975" type="line" smooth="yes"/>
      <point x="386.875" y="595.975"/>
      <point x="428.475" y="567.575"/>
      <point x="428.475" y="500.35" type="curve" smooth="yes"/>
      <point x="428.475" y="431.025"/>
      <point x="386.875" y="403.775"/>
      <point x="307.225" y="403.775" type="curve" smooth="yes"/>
    </contour>
  </outline>
</glyph>
<glyph name="G" format="2">
  <advance width="774.95"/>
  <unicode hex="0047"/>
  <anchor x="397.42499999999995" y="0.0" name="bottom"/>
  <anchor x="525.8499999999999" y="9.0" name="ogonek"/>
  <anchor x="397.42499999999995" y="700.0" name="top"/>
  <outline>
    <contour>
      <point x="396.475" y="-13.0" type="curve" smooth="yes"/>
      <point x="600.7" y="-13.0"/>
      <point x="733.4749999999999" y="126.95"/>
      <point x="733.4749999999999" y="321.475" type="curve" smooth="yes"/>
      <point x="733.4749999999999" y="340.85"/>
      <point x="732.0" y="364.5"/>
      <point x="729.525" y="380.775" type="curve"/>
      <point x="363.475" y="380.775" type="line"/>
      <point x="363.475" y="280.175" type="line"/>
      <point x="651.65" y="280.7" type="line"/>
      <point x="620.55" y="302.32500000000005" type="line"/>
      <point x="615.2249999999999" y="173.64999999999998"/>
      <point x="526.675" y="92.45"/>
      <point x="398.425" y="92.45" type="curve" smooth="yes"/>
      <point x="251.35000000000002" y="92.45"/>
      <point x="156.025" y="203.14999999999998"/>
      <point x="156.025" y="349.0" type="curve" smooth="yes"/>
      <point x="156.025" y="494.85"/>
      <point x="250.9" y="607.55"/>
      <point x="398.425" y="607.55" type="curve" smooth="yes"/>
      <point x="478.1" y="607.55"/>
      <point x="534.75" y="582.825"/>
      <point x="580.7" y="529.1" type="curve"/>
      <point x="660.2249999999999" y="602.05" type="line"/>
      <point x="589.9" y="680.95"/>
      <point x="510.475" y="713.0"/>
      <point x="396.475" y="713.0" type="curve" smooth="yes"/>
      <point x="187.95" y="713.0"/>
      <point x="41.475" y="552.625"/>
      <point x="41.475" y="349.0" type="curve" smooth="yes"/>
      <point x="41.475" y="146.375"/>
      <point x="190.05" y="-13.0"/>
    </contour>
  </outline>
</glyph>
<glyph name="d" format="2">
  <advance width="625.175"/>
  <unicode hex="0064"/>
  <anchor x="476.55" y="596.925" name="bar"/>
  <anchor x="284.92499999999995" y="0.0" name="bottom"/>
  <anchor x="294.67499999999995" y="248.8" name="center"/>
  <anchor x="285.45" y="485.57500000000005" name="top"/>
  <anchor x="624.7" y="700.0" name="topright"/>
  <outline>
    <contour>
      <point x="280.025" y="-13.0" type="curve" smooth="yes"/>
      <point x="359.375" y="-13.0"/>
      <point x="420.65" y="26.775"/>
      <point x="446.475" y="84.5" type="curve"/>
      <point x="452.475" y="84.5" type="line"/>
      <point x="452.475" y="0.0" type="line"/>
      <point x="554.5999999999999" y="0.0" type="line"/>
      <point x="554.5999999999999" y="700.0" type="line"/>
      <point x="448.475" y="700.0" type="line"/>
      <point x="448.475" y="413.25" type="line"/>
      <point x="441.95" y="413.25" type="line"/>
      <point x="417.7" y="469.825"/>
      <point x="354.85" y="510.125"/>
      <point x="280.025" y="510.125" type="curve" smooth="yes"/>
      <point x="134.175" y="510.125"/>
      <point x="32.65" y="395.1"/>
      <point x="32.65" y="247.79999999999998" type="curve" smooth="yes"/>
      <point x="32.65" y="101.5"/>
      <point x="134.175" y="-13.0"/>
    </contour>
    <contour>
      <point x="294.67499999999995" y="84.275" type="curve" smooth="yes"/>
      <point x="199.4" y="84.275"/>
      <point x="138.775" y="154.725"/>
      <point x="138.775" y="248.8" type="curve" smooth="yes"/>
      <point x="138.775" y="343.975"/>
      <point x="199.4" y="412.85"/>
      <point x="294.67499999999995" y="412.85" type="curve" smooth="yes"/>
      <point x="386.8" y="412.85"/>
      <point x="449.0" y="342.4"/>
      <point x="449.0" y="247.79999999999998" type="curve" smooth="yes"/>
      <point x="449.0" y="155.77499999999998"/>
      <point x="386.8" y="84.275"/>
    </contour>
  </outline>
</glyph>
<glyph name="e" format="2">
  <advance width="563.25"/>
  <unicode hex="0065"/>
  <anchor x="297.4" y="0.0" name="bottom"/>
  <anchor x="331.9" y="14.45" name="ogonek"/>
  <anchor x="293.125" y="497.125" name="top"/>
  <outline>
    <contour>
      <point x="296.45" y="-13.0" type="curve" smooth="yes"/>
      <point x="387.29999999999995" y="-13.0"/>
      <point x="463.15" y="22.325"/>
      <point x="507.72499999999997" y="77.625" type="curve"/>
      <point x="435.525" y="146.10000000000002" type="line"/>
      <point x="404.79999999999995" y="103.8"/>
      <point x="357.85" y="82.85"/>
      <point x="298.4" y="82.85" type="curve" smooth="yes"/>
      <point x="207.725" y="82.85"/>
      <point x="148.4" y="150.375"/>
      <point x="144.5" y="235.85" type="curve"/>
      <point x="144.025" y="252.125" type="line"/>
      <point x="142.075" y="359.625"/>
      <point x="201.95" y="419.5"/>
      <point x="290.6" y="419.5" type="curve" smooth="yes"/>
      <point x="384.25" y="419.5"/>
      <point x="430.275" y="354.375"/>
      <point x="426.75" y="254.5" type="curve"/>
      <point x="460.45000000000005" y="299.2" type="line"/>
      <point x="96.85" y="299.2" type="line"/>
      <point x="96.85" y="214.95" type="line"/>
      <point x="530.4000000000001" y="214.95" type="line"/>
      <point x="532.875" y="223.95"/>
      <point x="533.35" y="240.275"/>
      <point x="533.35" y="253.6" type="curve" smooth="yes"/>
      <point x="533.35" y="406.025"/>
      <point x="440.075" y="510.125"/>
      <point x="292.6" y="510.125" type="curve" smooth="yes"/>
      <point x="145.65" y="510.125"/>
      <point x="37.900000000000006" y="404.825"/>
      <point x="37.900000000000006" y="247.425" type="curve" smooth="yes"/>
      <point x="37.900000000000006" y="97.42500000000001"/>
      <point x="141.27499999999998" y="-13.0"/>
    </contour>
  </outline>
</glyph>
<glyph name="f" format="2">
  <advance width="398.35"/>
  <unicode hex="0066"/>
  <anchor x="166.875" y="0.0" name="bottom"/>
  <anchor x="259.57500000000005" y="700.0" name="top"/>
  <outline>
    <contour>
      <point x="115.1" y="0.0" type="line"/>
      <point x="221.22500000000002" y="0.0" type="line"/>
      <point x="221.22500000000002" y="535.45" type="line" smooth="yes"/>
      <point x="221.22500000000002" y="589.6"/>
      <point x="255.55" y="620.05"/>
      <point x="312.675" y="620.05" type="curve" smooth="yes"/>
      <point x="338.775" y="620.05"/>
      <point x="359.35" y="618.575"/>
      <point x="379.92499999999995" y="612.05" type="curve"/>
      <point x="379.92499999999995" y="703.95" type="line"/>
      <point x="349.35" y="711.0"/>
      <point x="330.92499999999995" y="713.0"/>
      <point x="294.025" y="713.0" type="curve" smooth="yes"/>
      <point x="188.89999999999998" y="713.0"/>
      <point x="115.1" y="645.1"/>
      <point x="115.1" y="539.025" type="curve" smooth="yes"/>
    </contour>
    <contour>
      <point x="18.425" y="402.32500000000005" type="line"/>
      <point x="379.92499999999995" y="402.32500000000005" type="line"/>
      <point x="379.92499999999995" y="497.125" type="line"/>
      <point x="18.425" y="497.125" type="line"/>
    </contour>
  </outline>
</glyph>
<glyph name="r" format="2">
  <advance width="373.92499999999995"/>
  <unicode hex="0072"/>
  <anchor x="124.35" y="0.0" name="bottom"/>
  <anchor x="219.25" y="497.125" name="top"/>
  <outline>
    <contour>
      <point x="71.05000000000001" y="0.0" type="line"/>
      <point x="177.175" y="0.0" type="line"/>
      <point x="177.175" y="269.9" type="line" smooth="yes"/>
      <point x="177.175" y="356.9"/>
      <point x="240.075" y="401.275"/>
      <point x="335.975" y="401.275" type="curve" smooth="yes"/>
      <point x="362.4" y="401.275" type="line"/>
      <point x="364.4" y="503.125" type="line"/>
      <point x="355.92499999999995" y="503.65"/>
      <point x="347.925" y="504.125"/>
      <point x="339.975" y="504.125" type="curve" smooth="yes"/>
      <point x="249.64999999999998" y="504.125"/>
      <point x="197.8" y="472.5"/>
      <point x="178.7" y="418.79999999999995" type="curve"/>
      <point x="173.175" y="418.79999999999995" type="line"/>
      <point x="173.175" y="497.125" type="line"/>
      <point x="71.05000000000001" y="497.125" type="line"/>
    </contour>
  </outline>
</glyph>
<glyph name="y" format="2">
  <advance width="547.95"/>
  <unicode hex="0079"/>
  <anchor x="423.525" y="0.0" name="bottom"/>
  <anchor x="157.525" y="-213.0" name="ogonek"/>
  <anchor x="276.525" y="497.125" name="top"/>
  <anchor x="277.525" y="436.125" name="top_hook"/>
  <outline>
    <contour>
      <point x="85.175" y="-223.0" type="curve" smooth="yes"/>
      <point x="177.075" y="-223.0"/>
      <point x="249.775" y="-192.5"/>
      <point x="305.675" y="-59.225" type="curve" smooth="yes"/>
      <point x="540.825" y="497.125" type="line"/>
      <point x="418.475" y="497.125" type="line"/>
      <point x="310.82500000000005" y="194.425" type="line" smooth="yes"/>
      <point x="301.725" y="169.225"/>
      <point x="286.05" y="126.35"/>
      <point x="279.475" y="92.725" type="curve"/>
      <point x="273.425" y="92.725" type="line"/>
      <point x="266.85" y="126.35"/>
      <point x="249.60000000000002" y="169.75"/>
      <point x="240.5" y="194.425" type="curve" smooth="yes"/>
      <point x="132.325" y="497.125" type="line"/>
      <point x="8.549999999999999" y="497.125" type="line"/>
      <point x="210.325" y="7.724999999999998" type="line"/>
      <point x="193.64999999999998" y="-32.775" type="line" smooth="yes"/>
      <point x="166.975" y="-97.275"/>
      <point x="130.875" y="-120.4"/>
      <point x="84.125" y="-120.4" type="curve" smooth="yes"/>
      <point x="61.075" y="-120.4"/>
      <point x="44.5" y="-117.875"/>
      <point x="23.975" y="-111.35" type="curve"/>
      <point x="7.125" y="-211.95" type="line"/>
      <point x="30.975" y="-218.95"/>
      <point x="55.025000000000006" y="-223.0"/>
    </contour>
  </outline>
</glyph>
<glyph name="logicalnot" format="2">
  <advance width="596.0"/>
  <unicode hex="00AC"/>
  <outline>
    <contour>
      <point x="402.67499999999995" y="188.0" type="line"/>
      <point x="501.67499999999995" y="188.0" type="line"/>
      <point x="501.67499999999995" y="394.75" type="line"/>
      <point x="87.675" y="394.75" type="line"/>
      <point x="87.675" y="304.70000000000005" type="line"/>
      <point x="402.67499999999995" y="304.70000000000005" type="line"/>
    </contour>
  </outline>
</glyph>
<glyph name="micro" format="2">
  <advance width="576.8499999999999"/>
  <unicode hex="00B5"/>
  <anchor x="278.875" y="0.0" name="bottom"/>
  <anchor x="402.625" y="0.0" name="ogonek"/>
  <anchor x="288.875" y="497.125" name="top"/>
  <anchor x="505.8" y="497.125" name="topright"/>
  <outline>
    <contour>
      <point x="182.075" y="13.275000000000002" type="line"/>
      <point x="203.375" y="-4.225"/>
      <point x="227.55" y="-12.524999999999999"/>
      <point x="257.2" y="-12.524999999999999" type="curve" smooth="yes"/>
      <point x="327.1" y="-12.524999999999999"/>
      <point x="372.575" y="27.475"/>
      <point x="397.67499999999995" y="69.725" type="curve"/>
      <point x="403.675" y="69.725" type="line"/>
      <point x="403.675" y="0.0" type="line"/>
      <point x="505.8" y="0.0" type="line"/>
      <point x="505.8" y="497.125" type="line"/>
      <point x="399.675" y="497.125" type="line"/>
      <point x="399.675" y="203.97500000000002" type="line" smooth="yes"/>
      <point x="399.675" y="129.1"/>
      <point x="352.225" y="82.375"/>
      <point x="282.575" y="82.375" type="curve" smooth="yes"/>
      <point x="219.85" y="82.375"/>
      <point x="177.175" y="129.1"/>
      <point x="177.175" y="203.97500000000002" type="curve" smooth="yes"/>
      <point x="177.175" y="497.125" type="line"/>
      <point x="71.05000000000001" y="497.125" type="line"/>
      <point x="71.05000000000001" y="-220.0" type="line"/>
      <point x="177.64999999999998" y="-220.0" type="line"/>
      <point x="177.64999999999998" y="13.275000000000002" type="line"/>
    </contour>
  </outline>
</glyph>
<glyph name="eng" format="2">
  <advance width="580.85"/>
  <unicode hex="014B"/>
  <outline>
    <contour>
      <point x="71.05000000000001" y="0.0" type="line"/>
      <point x="177.175" y="0.0" type="line"/>
      <point x="177.175" y="293.15" type="line" smooth="yes"/>
      <point x="177.175" y="368.025"/>
      <point x="224.10000000000002" y="414.75"/>
      <point x="298.275" y="414.75" type="curve" smooth="yes"/>
      <point x="366.0" y="414.75"/>
      <point x="408.675" y="368.025"/>
      <point x="408.675" y="293.15" type="curve" smooth="yes"/>
      <point x="408.675" y="-71.025" type="line" smooth="yes"/>
      <point x="408.675" y="-118.725"/>
      <point x="384.79999999999995" y="-137.3"/>
      <point x="348.5" y="-137.3" type="curve" smooth="yes"/>
      <point x="333.45000000000005" y="-137.3"/>
      <point x="321.5" y="-135.3"/>
      <point x="305.35" y="-129.775" type="curve"/>
      <point x="289.5" y="-223.525" type="line"/>
      <point x="313.975" y="-230.0"/>
      <point x="337.35" y="-233.0"/>
      <point x="363.15" y="-233.0" type="curve" smooth="yes"/>
      <point x="456.7" y="-233.0"/>
      <point x="514.8" y="-178.925"/>
      <point x="514.8" y="-75.925" type="curve" smooth="yes"/>
      <point x="514.8" y="318.275" type="line" smooth="yes"/>
      <point x="514.8" y="432.42499999999995"/>
      <point x="434.04999999999995" y="509.65"/>
      <point x="330.225" y="509.65" type="curve" smooth="yes"/>
      <point x="251.6" y="509.65"/>
      <point x="204.275" y="469.65"/>
      <point x="179.175" y="427.4" type="curve"/>
      <point x="173.175" y="427.4" type="line"/>
      <point x="173.175" y="497.125" type="line"/>
      <point x="71.05000000000001" y="497.125" type="line"/>
    </contour>
  </outline>
</glyph>
<glyph name="Fhook" format="2">
  <advance width="552.8499999999999"/>
  <unicode hex="0191"/>
  <anchor x="137.925" y="0.0" name="bottom"/>
  <anchor x="112.225" y="0.0" name="ogonek"/>
  <anchor x="300.85" y="700.0" name="top"/>
  <outline>
    <contour>
      <point x="-9.675" y="-231.1" type="curve" smooth="yes"/>
      <point x="116.15" y="-229.52499999999998"/>
      <point x="193.22500000000002" y="-160.525"/>
      <point x="193.22500000000002" y="-25.975" type="curve" smooth="yes"/>
      <point x="193.22500000000002" y="0.0" type="line"/>
      <point x="139.5" y="144.525" type="line"/>
      <point x="82.625" y="0.0" type="line"/>
      <point x="82.625" y="-28.675" type="line" smooth="yes"/>
      <point x="82.625" y="-90.95"/>
      <point x="46.425" y="-126.82499999999999"/>
      <point x="-4.6000000000000005" y="-126.82499999999999" type="curve" smooth="yes"/>
      <point x="-38.55" y="-126.82499999999999"/>
      <point x="-65.6" y="-113.60000000000001"/>
      <point x="-84.75" y="-89.975" type="curve"/>
      <point x="-156.0" y="-180.3" type="line"/>
      <point x="-119.0" y="-215.875"/>
      <point x="-68.1" y="-231.625"/>
    </contour>
    <component base="F" xOffset="1.5750000000000002"/>
  </outline>
</glyph>
<glyph name="strokeshortcomb" format="2">
  <unicode hex="0335"/>
  <anchor x="0.0" y="351.0" name="_bar"/>
  <outline>
    <contour>
      <point x="-164.725" y="298.79999999999995" type="line"/>
      <point x="165.2" y="298.79999999999995" type="line"/>
      <point x="165.2" y="393.6" type="line"/>
      <point x="-164.725" y="393.6" type="line"/>
    </contour>
  </outline>
</glyph>
<glyph name="hryvnia" format="2">
  <advance width="587.35"/>
  <unicode hex="20B4"/>
  <outline>
    <contour>
      <point x="311.67499999999995" y="27.0" type="curve" smooth="yes"/>
      <point x="419.525" y="27.0"/>
      <point x="506.05" y="61.775000000000006"/>
      <point x="565.75" y="155.8" type="curve"/>
      <point x="472.575" y="219.85" type="line"/>
      <point x="433.75" y="154.97500000000002"/>
      <point x="375.65" y="130.55"/>
      <point x="307.1" y="130.55" type="curve" smooth="yes"/>
      <point x="243.6" y="130.55"/>
      <point x="189.9" y="162.89999999999998"/>
      <point x="189.9" y="220.65" type="curve" smooth="yes"/>
      <point x="189.9" y="252.45"/>
      <point x="211.775" y="271.025"/>
      <point x="248.35" y="288.875" type="curve"/>
      <point x="89.67500000000001" y="296.95000000000005" type="line"/>
      <point x="79.4" y="277.1"/>
      <point x="73.55" y="253.35"/>
      <point x="73.55" y="224.22500000000002" type="curve" smooth="yes"/>
      <point x="73.55" y="99.2"/>
      <point x="172.125" y="27.0"/>
    </contour>
    <contour>
      <point x="14.825" y="254.9" type="line"/>
      <point x="572.95" y="254.9" type="line"/>
      <point x="572.95" y="333.075" type="line"/>
      <point x="14.825" y="333.075" type="line"/>
    </contour>
    <contour>
      <point x="14.825" y="376.42499999999995" type="line"/>
      <point x="572.95" y="376.42499999999995" type="line"/>
      <point x="572.95" y="454.6" type="line"/>
      <point x="14.825" y="454.6" type="line"/>
    </contour>
    <contour>
      <point x="341.475" y="417.57500000000005" type="curve"/>
      <point x="508.79999999999995" y="417.57500000000005" type="line"/>
      <point x="517.425" y="435.675"/>
      <point x="522.525" y="457.82500000000005"/>
      <point x="522.525" y="484.54999999999995" type="curve" smooth="yes"/>
      <point x="522.525" y="592.3"/>
      <point x="432.025" y="672.525"/>
      <point x="293.5" y="672.525" type="curve" smooth="yes"/>
      <point x="188.7" y="672.525"/>
      <point x="123.55000000000001" y="633.5250000000001"/>
      <point x="73.325" y="559.25" type="curve"/>
      <point x="164.125" y="498.15" type="line"/>
      <point x="197.75" y="552.825"/>
      <point x="243.04999999999998" y="569.9749999999999"/>
      <point x="300.67499999999995" y="569.9749999999999" type="curve" smooth="yes"/>
      <point x="364.875" y="569.9749999999999"/>
      <point x="406.70000000000005" y="533.95"/>
      <point x="406.70000000000005" y="494.29999999999995" type="curve" smooth="yes"/>
      <point x="406.70000000000005" y="452.3"/>
      <point x="380.79999999999995" y="433.05"/>
    </contour>
  </outline>
</glyph>
<glyph name="riyalSaudi" format="2">
  <advance width="600.0"/>
  <unicode hex="20C1"/>
  <outline>
    <contour>
      <point x="18.0" y="73.07499999999999" type="line"/>
      <point x="132.625" y="102.55" type="line" smooth="yes"/>
      <point x="205.875" y="121.82499999999999"/>
      <point x="267.325" y="200.52499999999998"/>
      <point x="267.325" y="277.29999999999995" type="curve" smooth="yes"/>
      <point x="267.325" y="762.25" type="line"/>
      <point x="187.825" y="722.5" type="line"/>
      <point x="186.25" y="213.89999999999998" type="line"/>
      <point x="35.425" y="177.325" type="line"/>
    </contour>
    <contour>
      <point x="340.05" y="28.150000000000002" type="line"/>
      <point x="565.05" y="76.19999999999999" type="line"/>
      <point x="583.0" y="179.39999999999998" type="line"/>
      <point x="359.575" y="132.35" type="line"/>
    </contour>
    <contour>
      <point x="18.0" y="264.175" type="line"/>
      <point x="564.0" y="386.17499999999995" type="line"/>
      <point x="583.0" y="490.95" type="line"/>
      <point x="35.425" y="368.95" type="line"/>
    </contour>
    <contour>
      <point x="335.3" y="184.45" type="line"/>
      <point x="564.0" y="230.4" type="line"/>
      <point x="583.0" y="335.17499999999995" type="line"/>
      <point x="362.0" y="286.6" type="line"/>
    </contour>
    <contour>
      <point x="335.3" y="184.45" type="line"/>
      <point x="414.79999999999995" y="205.725" type="line"/>
      <point x="414.79999999999995" y="713.0" type="line"/>
      <point x="335.3" y="674.725" type="line"/>
    </contour>
  </outline>
</glyph>
<glyph name="trademark" format="2">
  <advance width="852.825"/>
  <unicode hex="2122"/>
  <outline>
    <contour>
      <point x="368.0" y="315.0" type="line"/>
      <point x="440.2" y="315.0" type="line"/>
      <point x="440.2" y="479.35" type="line" smooth="yes"/>
      <point x="440.2" y="558.0"/>
      <point x="440.2" y="587.7249999999999"/>
      <point x="433.20000000000005" y="647.75" type="curve"/>
      <point x="409.625" y="653.05" type="line"/>
      <point x="566.05" y="315.0" type="line"/>
      <point x="608.775" y="315.0" type="line"/>
      <point x="766.775" y="654.625" type="line"/>
      <point x="741.525" y="630.425" type="line"/>
      <point x="735.0" y="573.55"/>
      <point x="733.5250000000001" y="545.4"/>
      <point x="733.5250000000001" y="470.42499999999995" type="curve" smooth="yes"/>
      <point x="733.5250000000001" y="315.0" type="line"/>
      <point x="807.825" y="315.0" type="line"/>
      <point x="807.825" y="700.0" type="line"/>
      <point x="712.525" y="700.0" type="line"/>
      <point x="628.175" y="521.15" type="line" smooth="yes"/>
      <point x="583.975" y="428.225"/>
      <point x="583.975" y="407.125"/>
      <point x="576.925" y="376.975" type="curve"/>
      <point x="600.9000000000001" y="376.975" type="line"/>
      <point x="594.85" y="407.125"/>
      <point x="592.8499999999999" y="427.225"/>
      <point x="548.6" y="521.15" type="curve" smooth="yes"/>
      <point x="465.25" y="700.0" type="line"/>
      <point x="368.0" y="700.0" type="line"/>
    </contour>
    <contour>
      <point x="134.875" y="315.0" type="line"/>
      <point x="211.125" y="315.0" type="line"/>
      <point x="211.125" y="662.875" type="line"/>
      <point x="180.425" y="630.7" type="line"/>
      <point x="321.0" y="630.7" type="line"/>
      <point x="321.0" y="700.0" type="line"/>
      <point x="25.0" y="700.0" type="line"/>
      <point x="25.0" y="630.7" type="line"/>
      <point x="165.575" y="630.7" type="line"/>
      <point x="134.875" y="662.875" type="line"/>
    </contour>
  </outline>
</glyph>
<glyph name="partialdiff" format="2">
  <advance width="621.575"/>
  <unicode hex="2202"/>
  <outline>
    <contour>
      <point x="295.65" y="-13.0" type="curve" smooth="yes"/>
      <point x="449.65" y="-13.0"/>
      <point x="560.4000000000001" y="89.0"/>
      <point x="560.4000000000001" y="281.95" type="curve" smooth="yes"/>
      <point x="560.4000000000001" y="342.325"/>
      <point x="543.875" y="400.625"/>
      <point x="516.725" y="457.35" type="curve" smooth="yes"/>
      <point x="459.725" y="575.025"/>
      <point x="361.125" y="666.475"/>
      <point x="236.64999999999998" y="756.0" type="curve"/>
      <point x="161.4" y="672.75" type="line"/>
      <point x="288.9" y="585.6"/>
      <point x="384.95000000000005" y="485.77500000000003"/>
      <point x="427.625" y="393.425" type="curve"/>
      <point x="427.625" y="381.2" type="line"/>
      <point x="442.1" y="343.1"/>
      <point x="451.04999999999995" y="302.05"/>
      <point x="451.04999999999995" y="260.475" type="curve" smooth="yes"/>
      <point x="451.04999999999995" y="159.65"/>
      <point x="394.65" y="85.65"/>
      <point x="295.125" y="85.65" type="curve" smooth="yes"/>
      <point x="200.8" y="85.65"/>
      <point x="143.925" y="158.3"/>
      <point x="143.925" y="241.525" type="curve" smooth="yes"/>
      <point x="143.925" y="326.75"/>
      <point x="207.625" y="391.25"/>
      <point x="293.54999999999995" y="391.25" type="curve" smooth="yes"/>
      <point x="370.4" y="391.25"/>
      <point x="416.67499999999995" y="364.9"/>
      <point x="468.125" y="300.975" type="curve"/>
      <point x="457.05" y="391.225" type="line"/>
      <point x="408.1" y="449.29999999999995"/>
      <point x="358.125" y="486.09999999999997"/>
      <point x="271.725" y="486.09999999999997" type="curve" smooth="yes"/>
      <point x="155.475" y="486.09999999999997"/>
      <point x="37.900000000000006" y="393.0"/>
      <point x="37.900000000000006" y="241.0" type="curve" smooth="yes"/>
      <point x="37.900000000000006" y="101.0"/>
      <point x="140.65" y="-13.0"/>
    </contour>
  </outline>
</glyph>
<glyph name="infinity" format="2">
  <advance width="771.25"/>
  <unicode hex="221E"/>
  <outline>
    <contour>
      <point x="209.0" y="97.25" type="curve" smooth="yes"/>
      <point x="302.4" y="97.25"/>
      <point x="369.075" y="158.775"/>
      <point x="418.375" y="257.275" type="curve"/>
      <point x="350.05" y="257.275" type="line"/>
      <point x="394.4" y="158.775"/>
      <point x="467.32500000000005" y="97.25"/>
      <point x="562.25" y="97.25" type="curve" smooth="yes"/>
      <point x="675.0" y="97.25"/>
      <point x="756.0" y="181.0"/>
      <point x="756.0" y="287.0" type="curve" smooth="yes"/>
      <point x="756.0" y="392.0"/>
      <point x="675.0" y="476.75"/>
      <point x="562.25" y="476.75" type="curve" smooth="yes"/>
      <point x="467.32500000000005" y="476.75"/>
      <point x="394.4" y="414.225"/>
      <point x="347.1" y="316.725" type="curve"/>
      <point x="415.42499999999995" y="316.725" type="line"/>
      <point x="369.075" y="414.225"/>
      <point x="302.4" y="476.75"/>
      <point x="209.0" y="476.75" type="curve" smooth="yes"/>
      <point x="96.25" y="476.75"/>
      <point x="15.25" y="392.0"/>
      <point x="15.25" y="287.0" type="curve" smooth="yes"/>
      <point x="15.25" y="181.0"/>
      <point x="96.25" y="97.25"/>
    </contour>
    <contour>
      <point x="208.375" y="189.5" type="curve" smooth="yes"/>
      <point x="156.7" y="189.5"/>
      <point x="108.35" y="230.075"/>
      <point x="108.35" y="287.0" type="curve" smooth="yes"/>
      <point x="108.35" y="343.925"/>
      <point x="156.7" y="384.5"/>
      <point x="208.375" y="384.5" type="curve" smooth="yes"/>
      <point x="282.225" y="384.5"/>
      <point x="318.825" y="324.775"/>
      <point x="358.375" y="242.175" type="curve"/>
      <point x="358.375" y="331.82500000000005" type="line"/>
      <point x="318.825" y="249.225"/>
      <point x="282.225" y="189.5"/>
    </contour>
    <contour>
      <point x="563.975" y="189.5" type="curve" smooth="yes"/>
      <point x="490.125" y="189.5"/>
      <point x="445.125" y="249.225"/>
      <point x="405.57500000000005" y="331.82500000000005" type="curve"/>
      <point x="405.57500000000005" y="242.175" type="line"/>
      <point x="445.125" y="324.775"/>
      <point x="490.125" y="384.5"/>
      <point x="563.975" y="384.5" type="curve" smooth="yes"/>
      <point x="615.125" y="384.5"/>
      <point x="665.0" y="343.925"/>
      <point x="665.0" y="287.0" type="curve" smooth="yes"/>
      <point x="665.0" y="230.075"/>
      <point x="615.125" y="189.5"/>
    </contour>
  </outline>
</glyph>
<glyph name="integral" format="2">
  <advance width="424.325"/>
  <unicode hex="222B"/>
  <outline>
    <contour>
      <point x="-120.0" y="-223.95" type="line"/>
      <point x="-95.525" y="-229.47500000000002"/>
      <point x="-70.45" y="-233.0"/>
      <point x="-38.825" y="-233.0" type="curve" smooth="yes"/>
      <point x="55.175" y="-233.0"/>
      <point x="131.02499999999998" y="-191.425"/>
      <point x="162.025" y="-52.425" type="curve" smooth="yes"/>
      <point x="285.92499999999995" y="504.70000000000005" type="line" smooth="yes"/>
      <point x="305.17499999999995" y="590.8"/>
      <point x="333.6" y="618.525"/>
      <point x="397.05" y="618.525" type="curve" smooth="yes"/>
      <point x="410.525" y="618.525"/>
      <point x="424.525" y="616.5250000000001"/>
      <point x="437.05" y="611.5250000000001" type="curve"/>
      <point x="454.325" y="703.5250000000001" type="line"/>
      <point x="435.575" y="709.475"/>
      <point x="416.1" y="713.4749999999999"/>
      <point x="391.82500000000005" y="713.4749999999999" type="curve" smooth="yes"/>
      <point x="292.925" y="713.4749999999999"/>
      <point x="217.60000000000002" y="666.475"/>
      <point x="186.6" y="526.95" type="curve" smooth="yes"/>
      <point x="59.55" y="-45.925" type="line" smooth="yes"/>
      <point x="43.975" y="-115.22500000000001"/>
      <point x="12.45" y="-138.525"/>
      <point x="-44.05" y="-138.525" type="curve" smooth="yes"/>
      <point x="-67.525" y="-138.525"/>
      <point x="-84.475" y="-136.525"/>
      <point x="-104.2" y="-130.95" type="curve"/>
    </contour>
  </outline>
</glyph>
<glyph name="whiteFourPointedStar" format="2">
  <advance width="585.0"/>
  <unicode hex="2727"/>
  <outline>
    <contour>
      <point x="286.0" y="39.0" type="curve"/>
      <point x="298.0" y="39.0" type="line"/>
      <point x="385.0" y="248.0"/>
      <point x="404.0" y="271.0"/>
      <point x="580.0" y="335.0" type="curve"/>
      <point x="580.0" y="349.0" type="line"/>
      <point x="404.0" y="413.0"/>
      <point x="385.0" y="436.0"/>
      <point x="298.0" y="645.0" type="curve"/>
      <point x="286.0" y="645.0" type="line"/>
      <point x="199.0" y="436.0"/>
      <point x="180.0" y="413.0"/>
      <point x="5.0" y="349.0" type="curve"/>
      <point x="5.0" y="335.0" type="line"/>
      <point x="180.0" y="271.0"/>
      <point x="199.0" y="248.0"/>
    </contour>
    <contour>
      <point x="290.0" y="67.0" type="line"/>
      <point x="265.85" y="280.525"/>
      <point x="236.575" y="318.475"/>
      <point x="33.0" y="340.0" type="curve"/>
      <point x="33.0" y="344.0" type="line"/>
      <point x="236.575" y="365.525"/>
      <point x="265.85" y="403.475"/>
      <point x="290.0" y="617.0" type="curve"/>
      <point x="294.0" y="617.0" type="line"/>
      <point x="318.15" y="403.475"/>
      <point x="347.42499999999995" y="365.525"/>
      <point x="552.0" y="344.0" type="curve"/>
      <point x="552.0" y="340.0" type="line"/>
      <point x="347.42499999999995" y="318.475"/>
      <point x="318.15" y="280.525"/>
      <point x="294.0" y="67.0" type="curve"/>
    </contour>
  </outline>
</glyph>
<glyph name="sparkles" format="2">
  <advance width="724.0"/>
  <unicode hex="2728"/>
  <outline>
    <contour>
      <point x="139.0" y="282.35" type="curve"/>
      <point x="151.27499999999998" y="445.35"/>
      <point x="166.5" y="458.1"/>
      <point x="272.0" y="463.0" type="curve"/>
      <point x="166.5" y="471.375"/>
      <point x="151.27499999999998" y="483.175"/>
      <point x="139.0" y="643.65" type="curve"/>
      <point x="126.725" y="483.175"/>
      <point x="111.5" y="471.375"/>
      <point x="6.0" y="463.0" type="curve"/>
      <point x="111.5" y="458.1"/>
      <point x="126.725" y="445.35"/>
    </contour>
    <contour>
      <point x="272.0" y="-25.65" type="curve"/>
      <point x="284.275" y="137.35000000000002"/>
      <point x="299.5" y="149.625"/>
      <point x="405.0" y="155.0" type="curve"/>
      <point x="299.5" y="163.375"/>
      <point x="284.275" y="175.175"/>
      <point x="272.0" y="335.65" type="curve"/>
      <point x="259.725" y="175.175"/>
      <point x="244.5" y="163.375"/>
      <point x="139.0" y="155.0" type="curve"/>
      <point x="244.5" y="149.625"/>
      <point x="259.725" y="137.35000000000002"/>
    </contour>
    <contour>
      <point x="473.0" y="54.225" type="curve"/>
      <point x="499.275" y="344.35"/>
      <point x="532.5" y="371.625"/>
      <point x="718.0" y="384.0" type="curve"/>
      <point x="532.5" y="401.375"/>
      <point x="499.275" y="426.65"/>
      <point x="473.0" y="713.775" type="curve"/>
      <point x="446.725" y="426.65"/>
      <point x="413.5" y="401.375"/>
      <point x="228.0" y="384.0" type="curve"/>
      <point x="413.5" y="371.625"/>
      <point x="446.725" y="344.35"/>
    </contour>
  </outline>
</glyph>
<glyph name="ae.ss01" format="2">
  <advance width="892.925"/>
  <anchor x="421.05" y="0.0" name="bottom"/>
  <anchor x="627.1" y="-6.175" name="ogonek"/>
  <anchor x="426.75" y="497.125" name="top"/>
  <outline>
    <contour>
      <point x="234.22500000000002" y="-13.0" type="curve" smooth="yes"/>
      <point x="321.07500000000005" y="-13.0"/>
      <point x="384.475" y="28.25"/>
      <point x="417.95" y="90.7" type="curve"/>
      <point x="422.42499999999995" y="90.7" type="line"/>
      <point x="458.3" y="27.200000000000003"/>
      <point x="538.05" y="-13.0"/>
      <point x="621.925" y="-13.0" type="curve" smooth="yes"/>
      <point x="708.9749999999999" y="-13.0"/>
      <point x="784.825" y="22.325"/>
      <point x="829.4" y="77.625" type="curve"/>
      <point x="757.2" y="146.10000000000002" type="line"/>
      <point x="726.4749999999999" y="103.8"/>
      <point x="679.5250000000001" y="82.85"/>
      <point x="620.075" y="82.85" type="curve" smooth="yes"/>
      <point x="534.15" y="82.85"/>
      <point x="469.125" y="150.375"/>
      <point x="470.92499999999995" y="235.85" type="curve"/>
      <point x="470.45" y="252.125" type="line"/>
      <point x="469.925" y="359.625"/>
      <point x="528.375" y="412.85"/>
      <point x="612.275" y="412.85" type="curve" smooth="yes"/>
      <point x="705.925" y="412.85"/>
      <point x="751.95" y="359.1"/>
      <point x="748.425" y="259.225" type="curve"/>
      <point x="782.125" y="303.925" type="line"/>
      <point x="444.825" y="303.925" type="line"/>
      <point x="470.45" y="219.675" type="line"/>
      <point x="852.075" y="219.675" type="line"/>
      <point x="854.55" y="228.675"/>
      <point x="855.025" y="245.0"/>
      <point x="855.025" y="258.325" type="curve" smooth="yes"/>
      <point x="855.025" y="410.75"/>
      <point x="761.75" y="510.125"/>
      <point x="614.2750000000001" y="510.125" type="curve" smooth="yes"/>
      <point x="529.1" y="510.125"/>
      <point x="467.42499999999995" y="472.0"/>
      <point x="435.15" y="430.32500000000005" type="curve"/>
      <point x="428.675" y="430.32500000000005" type="line"/>
      <point x="394.775" y="479.875"/>
      <point x="335.525" y="510.125"/>
      <point x="262.79999999999995" y="510.125" type="curve" smooth="yes"/>
      <point x="173.325" y="510.125"/>
      <point x="110.375" y="482.17499999999995"/>
      <point x="51.425" y="417.275" type="curve"/>
      <point x="122.05000000000001" y="347.5" type="line"/>
      <point x="160.77499999999998" y="392.17499999999995"/>
      <point x="198.72500000000002" y="412.85"/>
      <point x="262.075" y="412.85" type="curve" smooth="yes"/>
      <point x="340.45" y="412.85"/>
      <point x="372.45" y="362.0"/>
      <point x="372.45" y="326.17499999999995" type="curve" smooth="yes"/>
      <point x="372.45" y="269.775" type="line"/>
      <point x="391.15" y="305.4" type="line"/>
      <point x="287.54999999999995" y="299.775" type="line" smooth="yes"/>
      <point x="121.575" y="292.25"/>
      <point x="46.05" y="227.55"/>
      <point x="46.05" y="137.7" type="curve" smooth="yes"/>
      <point x="46.05" y="48.175"/>
      <point x="125.30000000000001" y="-13.0"/>
    </contour>
    <contour>
      <point x="242.75" y="82.85" type="curve" smooth="yes"/>
      <point x="186.14999999999998" y="82.85"/>
      <point x="149.325" y="104.05"/>
      <point x="149.325" y="145.025" type="curve" smooth="yes"/>
      <point x="149.325" y="188.6"/>
      <point x="205.05" y="210.475"/>
      <point x="296.35" y="215.05" type="curve" smooth="yes"/>
      <point x="390.1" y="220.2" type="line"/>
      <point x="372.45" y="245.275" type="line"/>
      <point x="372.45" y="210.525" type="line" smooth="yes"/>
      <point x="372.45" y="142.1"/>
      <point x="325.375" y="82.85"/>
    </contour>
  </outline>
</glyph>
<glyph name="cedi.tf" format="2">
  <advance width="596.0"/>
  <outline>
    <contour>
      <point x="338.475" y="21.75" type="curve" smooth="yes"/>
      <point x="446.275" y="21.75"/>
      <point x="532.85" y="67.075"/>
      <point x="589.525" y="135.8" type="curve"/>
      <point x="509.1" y="204.275" type="line"/>
      <point x="463.8" y="148.65"/>
      <point x="406.75" y="124.825"/>
      <point x="341.0" y="124.825" type="curve" smooth="yes"/>
      <point x="230.45" y="124.825"/>
      <point x="125.5" y="200.52499999999998"/>
      <point x="125.5" y="349.0" type="curve" smooth="yes"/>
      <point x="125.5" y="496.95"/>
      <point x="225.2" y="575.175"/>
      <point x="338.0" y="575.175" type="curve" smooth="yes"/>
      <point x="402.57500000000005" y="575.175"/>
      <point x="459.65" y="554.125"/>
      <point x="506.375" y="494.875" type="curve"/>
      <point x="585.9000000000001" y="567.3" type="line"/>
      <point x="521.475" y="643.7249999999999"/>
      <point x="432.625" y="678.25"/>
      <point x="338.475" y="678.25" type="curve" smooth="yes"/>
      <point x="163.525" y="678.25"/>
      <point x="11.899999999999999" y="546.825"/>
      <point x="11.899999999999999" y="349.0" type="curve" smooth="yes"/>
      <point x="11.899999999999999" y="151.64999999999998"/>
      <point x="168.375" y="21.75"/>
    </contour>
    <contour>
      <point x="287.15" y="-69.0" type="line"/>
      <point x="367.70000000000005" y="-69.0" type="line"/>
      <point x="367.70000000000005" y="775.0" type="line"/>
      <point x="287.15" y="775.0" type="line"/>
    </contour>
  </outline>
</glyph>
<glyph name="euro.ss10" format="2">
  <advance width="561.2"/>
  <outline>
    <contour>
      <point x="367.1" y="27.0" type="curve" smooth="yes"/>
      <point x="424.20000000000005" y="27.0"/>
      <point x="473.775" y="36.575"/>
      <point x="519.25" y="59.0" type="curve"/>
      <point x="527.625" y="183.35" type="line"/>
      <point x="484.67499999999995" y="148.45"/>
      <point x="434.25" y="132.45"/>
      <point x="369.625" y="132.45" type="curve" smooth="yes"/>
      <point x="281.3" y="132.45"/>
      <point x="194.85" y="164.375"/>
      <point x="166.125" y="273.5" type="curve"/>
      <point x="159.125" y="291.025" type="line"/>
      <point x="151.025" y="328.275"/>
      <point x="151.075" y="371.25"/>
      <point x="159.175" y="410.6" type="curve"/>
      <point x="165.64999999999998" y="427.65" type="line"/>
      <point x="193.89999999999998" y="535.2"/>
      <point x="275.775" y="567.55"/>
      <point x="367.1" y="567.55" type="curve" smooth="yes"/>
      <point x="429.1" y="567.55"/>
      <point x="484.15" y="550.65"/>
      <point x="529.25" y="507.8" type="curve"/>
      <point x="529.25" y="633.5250000000001" type="line"/>
      <point x="485.04999999999995" y="660.05"/>
      <point x="428.625" y="673.0"/>
      <point x="367.1" y="673.0" type="curve" smooth="yes"/>
      <point x="186.89999999999998" y="673.0"/>
      <point x="41.475" y="551.575"/>
      <point x="41.475" y="349.0" type="curve" smooth="yes"/>
      <point x="41.475" y="146.89999999999998"/>
      <point x="191.75" y="27.0"/>
    </contour>
    <contour>
      <point x="101.4" y="236.475" type="line"/>
      <point x="454.9" y="236.475" type="line"/>
      <point x="454.9" y="315.125" type="line"/>
      <point x="101.4" y="315.125" type="line"/>
    </contour>
    <contour>
      <point x="101.4" y="384.825" type="line"/>
      <point x="454.9" y="384.825" type="line"/>
      <point x="454.9" y="463.475" type="line"/>
      <point x="101.4" y="463.475" type="line"/>
    </contour>
  </outline>
</glyph>
<glyph name="hookabovecomb.case" format="2">
  <anchor x="0.0" y="700.0" name="_top"/>
  <anchor x="0.0" y="880.075" name="top"/>
  <outline>
    <contour>
      <point x="-37.8" y="735.95" type="curve"/>
      <point x="42.599999999999994" y="735.95" type="line"/>
      <point x="57.400000000000006" y="747.275"/>
      <point x="76.5" y="767.95"/>
      <point x="76.5" y="804.275" type="curve" smooth="yes"/>
      <point x="76.5" y="852.5250000000001"/>
      <point x="37.925" y="894.8499999999999"/>
      <point x="-28.825" y="894.8499999999999" type="curve" smooth="yes"/>
      <point x="-63.599999999999994" y="894.8499999999999"/>
      <point x="-89.975" y="881.225"/>
      <point x="-107.25" y="870.325" type="curve"/>
      <point x="-72.44999999999999" y="815.825" type="line"/>
      <point x="-63.925000000000004" y="822.925"/>
      <point x="-49.35" y="828.925"/>
      <point x="-32.775" y="828.925" type="curve" smooth="yes"/>
      <point x="-7.675000000000001" y="828.925"/>
      <point x="4.675" y="814.4"/>
      <point x="4.675" y="795.4749999999999" type="curve" smooth="yes"/>
      <point x="4.675" y="776.425"/>
      <point x="-8.8" y="757.8499999999999"/>
    </contour>
  </outline>
</glyph>
<glyph name="jdotless.ss10" format="2">
  <advance width="248.22500000000002"/>
  <anchor x="123.3" y="-220.0" name="bottom"/>
  <anchor x="137.3" y="-220.0" name="ogonek"/>
  <anchor x="124.35" y="497.125" name="top"/>
  <outline>
    <contour>
      <point x="71.05000000000001" y="-220.0" type="line"/>
      <point x="177.175" y="-220.0" type="line"/>
      <point x="177.175" y="497.125" type="line"/>
      <point x="71.05000000000001" y="497.125" type="line"/>
    </contour>
  </outline>
</glyph>
<glyph name="ordfeminine.ss01" format="2">
  <advance width="471.3"/>
  <outline>
    <contour>
      <point x="65.875" y="180.10000000000002" type="line"/>
      <point x="393.175" y="180.10000000000002" type="line"/>
      <point x="393.175" y="256.0" type="line"/>
      <point x="65.875" y="256.0" type="line"/>
    </contour>
    <contour>
      <point x="185.675" y="310.475" type="curve" smooth="yes"/>
      <point x="256.125" y="310.475"/>
      <point x="287.75" y="345.25"/>
      <point x="305.425" y="373.725" type="curve"/>
      <point x="310.425" y="373.725" type="line"/>
      <point x="310.425" y="320.0" type="line"/>
      <point x="393.175" y="320.0" type="line"/>
      <point x="393.175" y="569.1" type="line" smooth="yes"/>
      <point x="393.175" y="655.45"/>
      <point x="318.625" y="713.0"/>
      <point x="229.8" y="713.0" type="curve" smooth="yes"/>
      <point x="147.775" y="713.0"/>
      <point x="98.25" y="687.675"/>
      <point x="56.575" y="641.575" type="curve"/>
      <point x="110.44999999999999" y="588.075" type="line"/>
      <point x="138.225" y="619.9"/>
      <point x="170.2" y="638.375"/>
      <point x="220.625" y="638.375" type="curve" smooth="yes"/>
      <point x="265.825" y="638.375"/>
      <point x="306.9" y="612.375"/>
      <point x="306.9" y="572.525" type="curve" smooth="yes"/>
      <point x="306.9" y="539.525" type="line"/>
      <point x="324.075" y="557.025" type="line"/>
      <point x="238.725" y="551.55" type="line" smooth="yes"/>
      <point x="111.8" y="543.175"/>
      <point x="52.15" y="499.9"/>
      <point x="52.15" y="424.79999999999995" type="curve" smooth="yes"/>
      <point x="52.15" y="359.9"/>
      <point x="108.82499999999999" y="310.475"/>
    </contour>
    <contour>
      <point x="206.64999999999998" y="382.95000000000005" type="curve" smooth="yes"/>
      <point x="163.675" y="382.95000000000005"/>
      <point x="136.525" y="399.20000000000005"/>
      <point x="136.525" y="431.6" type="curve" smooth="yes"/>
      <point x="136.525" y="471.7"/>
      <point x="181.05" y="485.0"/>
      <point x="246.10000000000002" y="489.57500000000005" type="curve" smooth="yes"/>
      <point x="323.025" y="495.1" type="line"/>
      <point x="306.9" y="512.75" type="line"/>
      <point x="306.9" y="479.0" type="line" smooth="yes"/>
      <point x="306.9" y="425.55"/>
      <point x="264.6" y="382.95000000000005"/>
    </contour>
  </outline>
</glyph>
<glyph name="zero.ss10.numr" format="2">
  <advance width="362.85"/>
  <outline>
    <contour>
      <point x="181.5" y="308.0" type="curve" smooth="yes"/>
      <point x="266.2" y="308.0"/>
      <point x="327.0" y="375.525"/>
      <point x="327.0" y="506.525" type="curve" smooth="yes"/>
      <point x="327.0" y="635.0"/>
      <point x="270.2" y="706.0"/>
      <point x="181.5" y="706.0" type="curve" smooth="yes"/>
      <point x="93.17500000000001" y="706.0"/>
      <point x="35.849999999999994" y="636.475"/>
      <point x="35.849999999999994" y="506.525" type="curve" smooth="yes"/>
      <point x="35.849999999999994" y="374.525"/>
      <point x="97.175" y="308.0"/>
    </contour>
    <contour>
      <point x="181.975" y="371.3" type="curve" smooth="yes"/>
      <point x="141.45" y="371.3"/>
      <point x="108.1" y="407.025"/>
      <point x="108.1" y="506.525" type="curve" smooth="yes"/>
      <point x="108.1" y="612.5"/>
      <point x="141.45" y="642.7"/>
      <point x="181.975" y="642.7" type="curve" smooth="yes"/>
      <point x="222.4" y="642.7"/>
      <point x="255.275" y="612.5"/>
      <point x="255.275" y="506.525" type="curve" smooth="yes"/>
      <point x="255.275" y="407.025"/>
      <point x="222.4" y="371.3"/>
    </contour>
  </outline>
</glyph>
